# xmcd
# 
# Track frame offsets:
#     150
#     18281
#     41805
#     58636
#     75455
#     100145
#     129138
#     143031
#     160518
#     179920
# 
# Disc length: 2680
# 
# Revision: 2
# Processed by: cddbd v1.5.2PL0 Copyright (c) Steve Scherf et al.
# Submitted via: fre:ac v1.0.27
# 
DISCID=780a760a
DTITLE=Badly Drawn Boy - It's What I'm Thinking (Part One - Photographing Snowflakes)
DYEAR=2010
DGENRE=Folk-influenced IRE/UK Rock
TTITLE0=In Safe Hands
TTITLE1=The Order Of Things
TTITLE2=Too Many Miracles
TTITLE3=What Tomorrow Brings
TTITLE4=I Saw You Walk Away
TTITLE5=It's What I'm Thinking
TTITLE6=You Lied
TTITLE7=A Pure Accident
TTITLE8=This Electric
TTITLE9=This Beautiful Idea
EXTD=YEAR: 2010
EXTT0=
EXTT1=
EXTT2=
EXTT3=
EXTT4=
EXTT5=
EXTT6=
EXTT7=
EXTT8=
EXTT9=
PLAYORDER=
